<svg width="274" height="287" viewBox="0 0 274 287" fill="none" xmlns="http://www.w3.org/2000/svg">
<path d="M32.481 8.03341L3.48938 8.12423L2 276.542L12.3346 285L29.7286 284.958M32.481 8.03341L32.0096 85.3542L43.4862 95.8227L75.7331 95.2547M32.481 8.03341L75.6462 7.89819M196.767 7.51878L241.22 7.37953L246.765 2L257.657 2.79003L271.826 20.5202L272 274.925L261.005 284.406L244.255 284.446M196.767 7.51878L196.966 84.4704L186.017 93.3124L170.539 93.585M196.767 7.51878L170.996 7.59951M75.6462 7.89819L75.7331 95.2547M75.6462 7.89819L136.206 7.70849M75.7331 95.2547L137.898 94.1156M136.206 7.70849L137.898 94.1156M136.206 7.70849L170.996 7.59951M137.898 94.1156L170.539 93.585M170.996 7.59951L170.539 93.585M29.7286 284.958L29.4066 121.14L42.5566 108.603L231.36 107.522L244.619 120.047L244.255 284.446M29.7286 284.958L244.255 284.446" stroke="black" stroke-width="3"/>
</svg>
