<svg width="1606" height="651" viewBox="0 0 1606 651" fill="none" xmlns="http://www.w3.org/2000/svg">
<path d="M4.80986 603.817L265.401 140.857C270.393 132.046 274.203 122.617 276.735 112.812C281.966 92.2743 296.352 55.0263 330.016 69.2183C376.273 88.5446 251.838 267.519 251.838 267.519L340.526 181.786C340.526 181.786 431.83 98.0383 454.692 89.7556C478.426 81.0854 515.19 74.6432 520.518 149.478C524.974 211.817 501.628 235.599 501.628 235.599C501.628 235.599 559.752 200.773 599.906 342.161C640.061 483.548 441.13 570.88 414.49 567.489C387.849 564.099 405.432 472.843 488.792 425.569C572.152 378.295 546.916 355.142 537.665 332.958C528.413 310.773 503.42 244.076 449.219 342.161C395.018 440.245 359.078 400.672 355.251 393.068C351.425 385.463 333.697 366.718 428.439 275.172C523.182 183.626 476.101 143.714 455.516 146.233C438.805 148.267 289.183 265 228.589 341.967C167.994 418.933 85.9418 557.221 67.7779 599.555C52.4718 634.817 22.344 666.446 5.48797 640.678C2.02138 635.181 0.125561 628.84 0.00602463 622.342C-0.113512 615.844 1.54779 609.438 4.80986 603.817V603.817Z" fill="black"/>
<path d="M1073.77 216.177C1025.96 209.493 1007.17 227.075 975.391 276.868C959.794 301.378 952.093 310.387 937.707 337.366C927.632 356.354 890.82 425.134 854.056 405.178C817.293 385.222 845.289 353.108 855.316 339.497C866.214 324.966 947.007 246.644 885.637 236.763C824.268 226.882 833.083 282.487 813.224 307.045C793.365 331.602 703.514 438.067 706.13 391.616C708.406 350.347 739.406 298.423 746.332 287.234C747.83 284.893 749.096 282.411 750.111 279.823C754.034 269.748 759.265 247.952 735.579 238.991C703.999 227.172 694.892 263.209 694.892 263.209L612.211 491.88C604.267 527.966 656.385 540.317 667.526 508.01C677.649 478.415 775.734 380.378 793.026 379.458C810.318 378.538 770.018 401.981 807.557 437.97C845.095 473.958 906.949 420.678 916.976 420.581C927.002 420.484 932.185 430.656 947.297 440.876C965.946 453.518 1021.6 461.704 1059.96 438.842C1092.66 419.467 1119.15 360.277 1127.34 320.51C1135.04 281.809 1125.64 223.394 1073.77 216.177ZM1074.15 340.515C1061.46 364.733 1047.32 392.681 1024.65 402.659C1016.8 406.098 1003 411.039 993.506 403.822C986.677 398.591 984.691 385.367 984.449 381.831C983.577 369.964 986.192 352.527 997.672 326.468C1018.26 279.823 1048.39 251.536 1073.04 262.822C1097.69 274.108 1086.84 316.345 1074.15 340.515Z" fill="black"/>
<path d="M1366.13 225.185C1331.84 200.24 1261.26 248.726 1258.6 244.124C1254.48 236.859 1445.27 24.0268 1396.45 4.652C1372.52 -5.03539 1357.7 -3.53385 1302.24 48.2453C1245.86 100.945 1156.3 298.18 1156.3 298.18C1156.3 298.18 1130.1 376.018 1166.37 412.54C1202.65 449.061 1269.01 421.21 1304.57 392.148C1341.14 362.165 1400.37 250.179 1366.13 225.185ZM1336.24 76.2902C1336.24 76.2902 1302.68 161.346 1263.59 179.267C1224.5 197.189 1322 66.7482 1336.24 76.2902V76.2902ZM1259.71 367.929C1252.06 374.565 1229.15 386.82 1222.51 381.976C1219.27 379.456 1216.96 375.914 1215.98 371.923C1215 367.933 1215.39 363.727 1217.09 359.985C1225.18 341.144 1243.83 301.861 1266.3 279.677C1295.75 250.615 1308.83 243.688 1310.43 281.76C1312.61 330.1 1278.12 351.945 1259.71 367.929Z" fill="black"/>
<path d="M1399.45 350.49C1400.75 363.739 1406.21 376.236 1415.05 386.188C1418.98 390.83 1423.96 394.466 1429.58 396.795C1443.39 404.206 1466.3 410.891 1500.11 405.659C1540.99 399.363 1589.71 325.884 1601.82 302.828C1613.93 279.772 1600.71 231.722 1548.88 243.638C1497.05 255.553 1482.96 291.736 1468.82 308.834C1455.49 324.818 1446.49 325.932 1452.2 302.828C1457.53 281.031 1488.82 232.546 1504.46 211.476C1520.11 190.406 1526.36 150.348 1491.05 149.767C1455.74 149.186 1418.83 206.68 1402.5 284.373C1399.1 306.237 1398.08 328.405 1399.45 350.49V350.49ZM1509.7 350.974C1508.16 351.809 1506.41 352.161 1504.68 351.985C1502.94 351.809 1501.3 351.113 1499.96 349.988C1498.63 348.862 1497.66 347.361 1497.2 345.678C1496.73 343.996 1496.78 342.212 1497.34 340.56C1500.79 329.248 1507.12 319.029 1515.72 310.909C1524.31 302.789 1534.87 297.049 1546.36 294.254C1584.82 285.148 1538.56 335.571 1509.7 350.974Z" fill="black"/>
</svg>
