<svg width="266" height="165" viewBox="0 0 266 165" fill="none" xmlns="http://www.w3.org/2000/svg">
<rect x="2.40826" y="1.5" width="262" height="162" rx="8.5" stroke="black" stroke-width="3"/>
<rect x="17.8256" y="16.759" width="231.164" height="105.728" rx="5.5" stroke="black" stroke-width="3"/>
<rect x="25.5347" y="24.3918" width="215.745" height="34.1965" rx="5.5" stroke="black" stroke-width="3"/>
<rect x="48.6624" y="65.4017" width="169.491" height="35.1503" rx="5.5" stroke="black" stroke-width="3"/>
<rect x="118.044" y="65.4018" width="30.7273" height="35.1503" stroke="black" stroke-width="3"/>
<path d="M206.59 82.9779C206.59 92.6699 198.648 100.553 188.817 100.553C178.987 100.553 171.045 92.6699 171.045 82.9779C171.045 73.286 178.987 65.4028 188.817 65.4028C198.648 65.4028 206.59 73.286 206.59 82.9779Z" stroke="black" stroke-width="3"/>
<path d="M95.7723 82.9767C95.7723 92.6687 87.8297 100.552 77.9995 100.552C68.1693 100.552 60.2268 92.6687 60.2268 82.9767C60.2268 73.2848 68.1693 65.4016 77.9995 65.4016C87.8297 65.4016 95.7723 73.2848 95.7723 82.9767Z" stroke="black" stroke-width="3"/>
</svg>
