<svg width="315" height="196" viewBox="0 0 315 196" fill="none" xmlns="http://www.w3.org/2000/svg">
<rect x="2.20485" y="1.71057" width="311" height="192.509" rx="8.5" stroke="black" stroke-width="3"/>
<rect x="20.4729" y="19.7908" width="274.462" height="125.833" rx="5.5" stroke="black" stroke-width="3"/>
<rect x="29.6076" y="28.8352" width="256.193" height="41.0744" rx="5.5" stroke="black" stroke-width="3"/>
<rect x="57.0117" y="77.4281" width="201.385" height="42.2045" rx="5.5" stroke="black" stroke-width="3"/>
<rect x="139.223" y="77.4282" width="36.9636" height="42.2045" stroke="black" stroke-width="3"/>
<path d="M244.696 98.5317C244.696 110.172 235.158 119.634 223.359 119.634C211.561 119.634 202.023 110.172 202.023 98.5317C202.023 86.8918 211.561 77.4294 223.359 77.4294C235.158 77.4294 244.696 86.8918 244.696 98.5317Z" stroke="black" stroke-width="3"/>
<path d="M113.387 98.5302C113.387 110.17 103.849 119.632 92.0507 119.632C80.2523 119.632 70.7143 110.17 70.7143 98.5302C70.7143 86.8903 80.2523 77.428 92.0507 77.428C103.849 77.428 113.387 86.8903 113.387 98.5302Z" stroke="black" stroke-width="3"/>
</svg>
