<svg width="780" height="550" viewBox="0 0 780 550" fill="none" xmlns="http://www.w3.org/2000/svg">
<path d="M104.004 516.815C86.7464 516.288 24.7647 515.774 22.3788 515.297C1.41281 511.1 1.41211 496.042 1.4128 492.911C1.41682 474.579 3.04349 188.867 1.4128 25.6526C1.36213 20.5878 7.28329 9.7052 22.3788 7.46684C41.2482 4.66889 691.194 -4.42447 765.973 7.46684C777.503 10.2673 777.945 19.0992 778.411 27.9591C778.411 177.884 779.75 487.955 775.058 502.007C772.612 509.332 775.058 517.295 754.791 520.193C744.068 521.726 721.232 522.452 654.904 522.641M104.004 516.815L128.115 548.503H156.641L178.327 518.792M104.004 516.815C120.072 517.305 152.5 518.299 178.327 518.792M178.327 518.792C286.741 520.86 446.195 522.26 587.762 522.641M587.762 522.641L606.565 548.503H641.852L654.904 522.641M587.762 522.641C618.301 522.723 628.966 522.715 654.904 522.641M46.1405 96.302C38.9189 179.075 28.8086 364.626 46.1405 444.647C48.9359 452.575 58.9996 469.689 76.8906 474.725C99.2543 481.021 496.91 490.814 557.711 474.725C575.418 470.04 582.87 462.134 587.762 444.647C592.654 427.16 603.836 138.971 587.762 90.0066C582.908 75.2203 574.583 69.3532 561.602 66.419C546.937 63.104 97.3938 54.0653 62.4505 68.0551C52.9459 71.4127 46.897 87.6306 46.1405 96.302ZM26.0138 22.1831C18.2924 22.9592 13.154 20.8974 12.5949 41.0426C12.0358 61.1877 12.3619 350.682 12.5949 492.911C12.8278 497.341 15.1513 504.961 22.3788 505.502C31.4655 506.182 716.353 517.701 754.791 505.11C763.032 501.615 765.094 497.452 765.793 490.457C766.492 483.462 768.106 46.7964 766.111 37.2101C765.093 32.3173 761.928 25.6526 751.297 25.6526C741.212 25.6526 143.099 10.415 26.0138 22.1831Z" stroke="black" stroke-width="2"/>
<circle cx="683.3" cy="172.358" r="28.1948" stroke="black" stroke-width="2"/>
<circle cx="644.548" cy="252.098" r="11.6689" stroke="black" stroke-width="2"/>
<circle cx="644.548" cy="252.098" r="5.70708" stroke="black" stroke-width="2"/>
<circle cx="683.3" cy="252.098" r="11.6689" stroke="black" stroke-width="2"/>
<path d="M689.752 252.098C689.752 255.2 687.082 257.805 683.672 257.805C680.263 257.805 677.593 255.2 677.593 252.098C677.593 248.996 680.263 246.391 683.672 246.391C687.082 246.391 689.752 248.996 689.752 252.098Z" stroke="black" stroke-width="2"/>
<circle cx="722.052" cy="252.098" r="11.6689" stroke="black" stroke-width="2"/>
<circle cx="722.052" cy="252.098" r="5.70708" stroke="black" stroke-width="2"/>
<rect x="617.974" y="69.0259" width="130.651" height="155.989" rx="6" stroke="black" stroke-width="2"/>
<circle cx="683.3" cy="172.358" r="35.5163" stroke="black" stroke-width="2"/>
<rect x="658.497" y="182.277" width="52.9479" height="8.86994" rx="4.43497" transform="rotate(-31.3526 658.497 182.277)" stroke="black" stroke-width="2"/>
<rect x="623.291" y="75.7753" width="120.336" height="6.36904" rx="3.18452" stroke="black" stroke-width="2"/>
<rect x="623.291" y="87.1643" width="120.336" height="6.36904" rx="3.18452" stroke="black" stroke-width="2"/>
<rect x="623.291" y="98.5533" width="120.336" height="6.36904" rx="3.18452" stroke="black" stroke-width="2"/>
<rect x="623.291" y="109.942" width="120.336" height="6.36904" rx="3.18452" stroke="black" stroke-width="2"/>
<rect x="623.291" y="121.331" width="120.336" height="6.36904" rx="3.18452" stroke="black" stroke-width="2"/>
</svg>
